# xmcd
# 
# Track frame offsets:
#     150
#     17997
#     36464
#     54330
#     69443
#     91722
#     107611
#     126557
#     143591
#     165793
#     182833
#     204370
#     231477
# 
# Disc length: 3096
# 
# Revision: 3
# Processed by: cddbd v1.5.2PL0 Copyright (c) Steve Scherf et al.
# Submitted via: BonkEnc v1.0.5
# 
DISCID=ac0c160d
DTITLE=Texas Dukes - Fatherland [CD2]
DYEAR=2008
DGENRE=Country
TTITLE0=Hollywood Cowboy
TTITLE1=Hotel Band
TTITLE2=No One But You
TTITLE3=Mary's Way
TTITLE4=Amarillo Bar Hop
TTITLE5=One Waltz With You
TTITLE6=Tequela Ranch
TTITLE7=Duketown
TTITLE8=Margaretta
TTITLE9=Panhandle Throw-Down
TTITLE10=Your Heart and Mine
TTITLE11=Fatherhood
TTITLE12=Data track
EXTD=License: http://creativecommons.org/licenses/by-nc-nd/3.0/us/
EXTT0=
EXTT1=
EXTT2=
EXTT3=
EXTT4=
EXTT5=
EXTT6=
EXTT7=
EXTT8=
EXTT9=
EXTT10=
EXTT11=
EXTT12=
PLAYORDER=
